<?xml version="1.0" standalone="no"?>
<!DOCTYPE svg PUBLIC "-//W3C//DTD SVG 20010904//EN"
 "http://www.w3.org/TR/2001/REC-SVG-20010904/DTD/svg10.dtd">
<svg version="1.0" xmlns="http://www.w3.org/2000/svg"
 width="512.000000pt" height="512.000000pt" viewBox="0 0 512.000000 512.000000"
 preserveAspectRatio="xMidYMid meet">

<g transform="translate(0.000000,512.000000) scale(0.100000,-0.100000)"
fill="#000000" stroke="none">
<path d="M244 4877 c-156 -75 -193 -301 -69 -421 l43 -43 -32 -11 c-45 -16
-67 -44 -76 -92 -11 -59 6 -469 35 -875 14 -192 30 -466 36 -607 l12 -258 -55
-53 c-113 -108 -138 -202 -138 -515 0 -212 10 -292 46 -373 25 -55 25 -60 17
-190 -4 -74 -5 -201 -2 -284 4 -82 5 -199 2 -260 -12 -240 42 -323 220 -340
l75 -6 -10 -42 c-5 -23 -8 -74 -6 -114 4 -81 22 -114 79 -148 32 -19 49 -20
294 -17 260 3 260 3 315 30 74 37 95 78 95 187 0 44 -3 89 -8 101 -7 21 -7 21
345 29 456 11 827 11 1776 0 701 -7 772 -10 765 -24 -4 -9 -8 -54 -8 -101 0
-114 20 -155 95 -192 55 -27 55 -27 315 -30 245 -3 262 -2 294 17 57 34 75 67
79 148 2 40 -1 91 -6 114 l-10 42 75 6 c178 17 232 100 220 340 -3 61 -2 178
2 260 3 83 2 210 -2 284 -8 130 -8 135 17 190 36 81 46 161 46 373 0 313 -25
407 -138 515 l-55 53 12 258 c6 141 22 415 36 607 29 406 46 816 35 875 -9 48
-31 76 -76 92 l-32 11 43 43 c94 91 99 257 11 361 -75 87 -211 108 -300 46
-95 -65 -121 -216 -61 -355 6 -16 1 -18 -50 -18 -53 0 -60 -3 -95 -37 -43 -44
-52 -82 -71 -303 -6 -74 -12 -136 -13 -138 -2 -1 -21 4 -43 12 -68 24 -172 35
-622 66 -239 17 -482 34 -540 40 -372 34 -797 36 -1146 5 -93 -9 -363 -29
-600 -45 -447 -31 -550 -42 -618 -66 -22 -8 -41 -13 -43 -12 -1 2 -7 64 -13
138 -19 221 -28 259 -71 303 -35 34 -42 37 -95 37 -51 0 -56 2 -50 18 60 139
34 288 -62 355 -59 42 -148 47 -219 14z m172 -108 c35 -33 48 -91 35 -156 -10
-50 -36 -103 -50 -103 -3 0 -30 36 -59 78 -43 63 -55 90 -61 136 -7 53 -6 59
13 67 33 14 96 3 122 -22z m4452 -7 c30 -28 52 -84 52 -132 -1 -40 -35 -105
-68 -128 -54 -39 -55 -35 -49 116 5 133 11 172 27 172 4 0 21 -13 38 -28z
m-4251 -415 c13 -38 20 -107 48 -442 22 -264 27 -240 -46 -242 -69 -2 -138
-31 -168 -69 -10 -13 -22 -24 -25 -24 -8 0 -6 670 2 740 l7 55 55 11 c92 20
113 15 127 -29z m4218 -21 l70 -22 3 -144 c2 -88 -7 -275 -23 -475 -13 -181
-34 -450 -45 -596 -11 -146 -20 -309 -20 -363 0 -90 -2 -97 -17 -91 -10 4 -63
24 -118 44 l-100 36 16 32 c13 26 17 82 21 307 l5 274 36 37 c23 24 39 53 47
86 11 44 10 53 -10 93 -11 24 -27 49 -33 55 -9 7 -11 35 -5 108 4 54 10 207
12 341 3 144 10 257 16 278 14 40 15 40 145 0z m-1845 -301 c129 -8 366 -24
525 -35 470 -33 603 -40 733 -40 l122 0 0 -159 0 -158 -59 -27 c-72 -32 -98
-32 -236 0 -67 15 -166 28 -255 34 -165 10 -614 4 -706 -11 l-61 -9 -43 40
c-95 88 -233 125 -303 81 -51 -31 -71 -80 -64 -157 l5 -62 -101 -25 c-56 -14
-103 -25 -104 -23 -2 1 6 20 17 41 41 80 19 186 -47 226 -70 44 -208 7 -303
-81 l-43 -40 -61 9 c-93 15 -542 21 -716 11 -179 -11 -168 -15 -220 87 -36 72
-56 157 -47 195 9 33 8 33 272 48 265 15 669 48 725 59 76 15 714 12 970 -4z
m-619 -375 c14 -8 19 -21 19 -50 0 -33 -9 -48 -55 -102 -65 -75 -73 -103 -57
-214 23 -154 14 -245 -40 -417 l-31 -98 -91 6 c-50 3 -185 10 -301 15 -115 6
-258 13 -317 16 l-107 7 -23 81 c-20 73 -22 100 -21 271 1 188 14 359 28 373
24 24 545 -6 655 -38 63 -18 85 -13 116 28 40 52 71 78 128 107 55 28 68 30
97 15z m477 -16 c30 -15 75 -51 107 -86 54 -60 55 -61 97 -55 24 4 54 10 67
13 23 7 24 6 17 -32 -31 -173 -37 -226 -37 -359 -1 -101 4 -174 15 -225 9 -41
16 -76 16 -77 0 -5 -67 -13 -138 -15 l-84 -2 -28 86 c-53 165 -58 233 -34 435
10 82 -1 116 -57 178 -58 63 -74 118 -44 148 23 23 42 21 103 -9z m-2114 -116
c77 -36 101 -42 156 -43 36 0 83 4 104 8 l39 8 -7 -33 c-29 -134 -35 -199 -36
-383 0 -110 4 -216 10 -234 5 -19 8 -37 5 -39 -3 -3 -49 -11 -103 -18 -54 -7
-115 -15 -134 -19 l-36 -7 -26 79 c-41 123 -46 166 -33 285 15 148 6 172 -89
264 -79 75 -91 106 -56 137 52 47 95 46 206 -5z m3837 19 c23 -15 35 -32 37
-52 3 -25 -7 -39 -71 -99 -96 -90 -104 -116 -88 -267 13 -120 11 -139 -31
-267 l-30 -94 -32 6 c-191 34 -285 40 -563 41 l-292 0 -6 35 c-27 173 -42 538
-27 655 l7 50 140 1 c189 2 285 -8 445 -46 166 -39 207 -37 328 19 100 47 135
50 183 18z m-4033 -245 l35 -33 -9 -72 c-5 -39 -9 -124 -8 -187 0 -100 4 -125
28 -188 15 -41 26 -75 24 -76 -6 -5 -71 -26 -73 -24 -14 24 -69 346 -84 498
-6 58 -14 122 -17 144 l-6 39 37 -34 c21 -19 54 -49 73 -67z m1497 -613 c173
-15 556 -15 895 -1 481 20 922 26 1075 13 239 -20 445 -59 585 -111 l55 -20
-185 8 c-275 11 -706 7 -865 -7 -77 -7 -257 -25 -400 -41 -784 -87 -949 -88
-1595 -10 -179 21 -397 44 -485 51 -319 23 -633 -14 -841 -101 -60 -25 -34 -1
40 37 184 94 464 164 776 193 122 11 775 4 945 -11z m2450 -204 c259 -14 319
-24 405 -62 93 -42 103 -75 104 -373 2 -283 -4 -339 -39 -391 -39 -55 -116
-91 -210 -97 -66 -4 -79 -2 -117 21 -26 15 -63 51 -89 87 -61 86 -67 92 -101
88 -24 -2 -35 -12 -55 -48 -47 -84 -119 -140 -183 -140 -39 0 -99 32 -165 87
-73 61 -120 86 -146 78 -10 -4 -34 -30 -53 -58 -111 -173 -212 -170 -365 10
-71 84 -93 84 -137 -1 -36 -70 -91 -107 -197 -131 -79 -18 -124 -13 -184 21
-47 27 -67 52 -113 142 -24 49 -36 62 -54 62 -34 0 -53 -28 -65 -92 -18 -98
-51 -128 -142 -128 -93 0 -158 49 -182 137 -24 91 -78 83 -138 -18 -68 -117
-148 -153 -277 -124 -105 24 -160 61 -196 131 -44 85 -66 85 -137 1 -153 -180
-254 -183 -365 -10 -19 28 -43 54 -53 58 -26 8 -73 -17 -146 -78 -64 -54 -126
-86 -163 -87 -64 0 -139 55 -178 132 -29 57 -54 74 -86 57 -13 -7 -26 -17 -30
-24 -33 -55 -103 -134 -136 -153 -114 -64 -321 13 -353 130 -12 46 -16 535 -4
588 4 19 12 41 17 47 13 17 180 70 293 94 271 57 586 53 1195 -16 382 -43 434
-47 650 -46 273 0 395 9 845 57 635 68 857 76 1350 49z m466 -1250 c-6 -88
-11 -229 -11 -313 0 -83 -2 -152 -5 -152 -2 0 -30 7 -62 16 -50 14 -165 18
-833 24 -761 8 -890 13 -1435 55 -305 24 -470 59 -634 136 -155 73 -218 148
-209 253 5 61 34 108 81 133 49 27 151 22 297 -14 182 -45 200 -47 366 -28
111 13 187 16 299 11 113 -4 171 -2 235 9 311 55 651 72 1125 56 338 -12 378
-12 465 4 52 9 120 20 151 25 30 4 82 19 115 32 l59 23 3 -55 c2 -30 -1 -127
-7 -215z"/>
</g>
</svg>
